<?xml version="1.0" standalone="no"?>
<!DOCTYPE svg PUBLIC "-//W3C//DTD SVG 20010904//EN"
 "http://www.w3.org/TR/2001/REC-SVG-20010904/DTD/svg10.dtd">
<svg version="1.0" xmlns="http://www.w3.org/2000/svg"
 width="537.000000pt" height="537.000000pt" viewBox="0 0 537.000000 537.000000"
 preserveAspectRatio="xMidYMid meet">
<metadata>
Created by potrace 1.14, written by Peter Selinger 2001-2017
</metadata>
<g transform="translate(0.000000,537.000000) scale(0.100000,-0.100000)"
fill="#000000" stroke="none">
<path d="M986 5089 c-2 -8 -9 -28 -14 -46 -6 -18 -14 -90 -17 -160 -7 -131 9
-328 39 -473 41 -194 126 -461 186 -581 l40 -79 -37 -56 c-95 -142 -127 -196
-172 -289 -27 -55 -51 -111 -54 -125 -3 -14 -21 -83 -41 -154 -35 -125 -36
-135 -36 -295 0 -154 -2 -175 -32 -291 -29 -112 -32 -140 -33 -270 0 -125 3
-156 23 -220 27 -86 89 -217 132 -275 101 -140 100 -137 121 -272 22 -144 28
-167 76 -276 41 -95 101 -176 208 -278 81 -79 101 -95 245 -199 138 -102 349
-204 525 -255 95 -27 312 -67 460 -85 105 -12 258 -2 442 29 120 21 122 21
165 1 24 -10 73 -22 108 -26 55 -5 73 -3 112 16 52 24 223 179 233 210 4 11
17 26 30 33 76 39 236 168 338 270 l118 119 91 22 91 23 35 85 35 86 56 16
c31 8 99 26 151 40 52 13 127 33 165 44 39 11 110 28 159 37 161 30 224 47
230 61 14 37 28 164 36 334 7 151 6 188 -5 199 -40 40 -514 -97 -676 -196 -40
-24 -37 -10 -55 -206 -5 -51 -11 -70 -23 -74 -9 -3 -42 -16 -73 -29 l-58 -23
0 54 c0 45 8 69 44 137 23 46 62 103 85 128 43 46 102 157 143 270 21 59 23
81 23 235 l-1 170 -42 107 c-38 99 -41 111 -32 157 5 27 12 98 16 158 5 92 3
122 -16 203 -55 234 -134 405 -245 529 -16 18 -29 38 -27 43 1 6 20 36 41 67
21 31 64 108 95 171 32 63 61 123 66 132 6 10 26 79 45 154 35 134 47 241 59
519 7 162 -30 341 -75 366 -17 8 -36 2 -107 -34 -168 -86 -261 -157 -411 -310
-182 -188 -316 -347 -372 -444 -17 -29 -34 -55 -38 -58 -5 -2 -41 9 -81 25
-40 16 -102 35 -139 41 -36 6 -86 16 -111 24 -139 40 -232 50 -485 50 -220 -1
-264 -4 -365 -24 -93 -18 -301 -81 -380 -115 -17 -7 -77 72 -182 238 -80 129
-182 247 -293 342 -33 28 -76 65 -95 81 -47 40 -156 105 -260 155 -91 44 -176
61 -184 37z m582 -371 c49 -41 162 -172 200 -233 40 -63 152 -295 152 -314 0
-6 -17 -19 -37 -30 -21 -11 -51 -32 -68 -46 -29 -25 -29 -26 -5 -19 14 3 63
29 110 57 98 60 150 87 164 87 5 0 17 6 25 14 33 30 224 76 421 101 244 31
473 14 720 -52 30 -8 73 -19 95 -23 22 -5 87 -27 145 -49 85 -33 114 -50 150
-86 24 -25 48 -45 52 -45 21 0 3 35 -39 76 l-48 45 33 62 c18 34 46 78 62 97
16 19 45 55 66 80 175 215 242 262 374 264 64 1 81 -3 120 -26 61 -35 146
-127 172 -184 25 -58 36 -218 19 -301 -32 -163 -127 -377 -218 -489 l-33 -41
31 -29 c32 -30 64 -87 98 -170 10 -27 35 -88 55 -137 20 -48 50 -135 68 -195
29 -101 31 -117 32 -284 1 -97 -2 -179 -6 -183 -4 -4 -38 -10 -75 -12 -37 -2
-81 -11 -97 -19 -16 -8 -34 -14 -40 -14 -25 0 -116 -93 -156 -160 -57 -94 -72
-141 -76 -232 -8 -203 116 -375 278 -384 27 -1 52 -4 54 -7 2 -2 -16 -22 -40
-45 -43 -40 -115 -82 -166 -97 -14 -4 -38 -13 -55 -20 -91 -40 -180 -70 -268
-91 l-99 -24 -41 34 c-63 50 -104 68 -171 73 -96 7 -101 9 -121 53 -21 48 -31
50 -40 11 -3 -16 -21 -44 -40 -62 l-33 -33 29 -14 29 -14 -68 -67 c-62 -63
-110 -91 -152 -91 -10 0 -46 27 -81 61 -75 73 -121 97 -197 107 -142 19 -323
-52 -394 -153 -24 -35 -38 -45 -59 -45 -29 0 -436 89 -526 115 l-56 16 34 29
c19 16 37 29 40 30 18 1 31 65 25 122 -11 111 -56 173 -154 211 -61 24 -122
21 -204 -11 -109 -42 -193 -140 -220 -260 -7 -35 -16 -51 -24 -48 -26 10 -160
113 -218 168 l-61 58 55 0 c105 0 150 25 217 121 61 88 78 149 78 289 0 119
-1 127 -27 167 -47 72 -149 173 -202 200 -39 20 -71 27 -133 31 l-83 5 0 126
c0 123 22 280 55 391 7 25 21 71 30 103 29 99 182 367 231 406 31 24 30 33 -6
86 -82 120 -208 542 -197 662 10 100 44 163 119 216 72 51 110 65 223 83 98
16 137 12 173 -18z m3605 -2810 c-3 -40 -13 -146 -24 -235 -10 -89 -19 -166
-19 -172 0 -5 -21 -12 -47 -16 -71 -9 -576 -140 -664 -171 -25 -9 -50 -26 -55
-37 -5 -11 -16 -21 -24 -23 -8 -1 -33 -5 -54 -9 -36 -7 -39 -6 -31 11 4 10 15
51 24 90 l15 72 70 35 c39 19 81 38 93 41 25 8 29 20 44 164 l12 113 36 18
c121 61 518 188 592 190 l36 1 -4 -72z m-3413 2 c102 -52 153 -164 116 -252
-19 -45 -62 -81 -88 -72 -10 3 -25 0 -33 -6 -8 -7 -31 -10 -50 -8 -22 2 -34 0
-32 -6 2 -6 19 -12 39 -14 l35 -3 6 -87 c7 -106 23 -184 43 -208 14 -17 15
-15 9 29 l-6 48 38 -19 c96 -48 328 -105 481 -118 l78 -7 29 -55 c42 -80 120
-156 198 -192 55 -25 77 -30 144 -30 83 0 155 17 210 50 60 35 63 32 63 -84 0
-58 -4 -107 -9 -110 -5 -3 -12 -22 -15 -41 -4 -20 -16 -45 -27 -56 -12 -12
-14 -19 -6 -19 19 -1 53 -33 72 -70 10 -20 20 -28 24 -22 4 7 14 -3 26 -24 11
-21 15 -38 9 -43 -16 -15 -176 -43 -279 -49 -144 -7 -390 15 -505 45 -188 50
-371 113 -452 155 -86 44 -218 132 -301 201 -43 35 -46 41 -33 56 18 20 29 63
19 77 -17 24 -51 34 -78 24 -54 -21 -71 -13 -134 60 -33 38 -67 83 -76 100
-15 29 -15 30 9 30 40 0 114 36 121 60 9 27 9 26 -60 51 -71 25 -128 53 -142
71 -18 21 -43 132 -43 188 l0 53 21 -27 c11 -14 50 -47 85 -72 36 -26 84 -72
107 -103 55 -76 89 -111 106 -111 10 0 4 12 -16 33 -17 17 -43 57 -59 87 -25
51 -28 64 -28 170 0 99 4 121 22 157 33 64 121 152 167 168 60 21 148 19 195
-5z m1647 -279 c-6 -14 -12 -28 -13 -29 -4 -6 -53 32 -54 41 0 4 10 21 22 37
l22 30 17 -26 c14 -22 15 -32 6 -53z m174 -1 c54 -20 109 -64 109 -86 0 -7
-17 -25 -37 -40 -68 -50 -105 -95 -111 -136 -2 -21 -7 -36 -10 -33 -9 9 -31
-16 -26 -30 3 -7 -4 -18 -15 -24 -29 -16 -34 -14 -27 12 7 29 -20 69 -42 65
-11 -2 -16 -14 -17 -33 0 -34 -31 -55 -82 -55 -39 0 -41 -8 -12 -44 14 -18 28
-26 40 -23 11 3 17 1 14 -3 -3 -5 -18 -11 -34 -15 -16 -3 -32 -13 -35 -21 -7
-18 10 -54 24 -54 5 0 16 -16 25 -36 20 -49 38 -39 51 32 13 71 29 105 48 98
8 -3 28 2 45 11 17 8 31 13 31 9 0 -15 -47 -43 -72 -44 -27 0 -28 -2 -28 -54
0 -76 6 -86 49 -86 20 0 42 -5 48 -11 18 -18 43 -3 43 24 0 14 7 30 15 37 24
20 19 59 -10 72 l-25 11 31 26 31 26 -21 27 c-33 41 -25 44 18 5 45 -41 82
-62 126 -71 l31 -7 -7 -67 c-6 -72 -28 -171 -40 -186 -4 -5 -11 3 -15 18 -9
37 -22 32 -30 -11 -9 -48 -31 -93 -47 -93 -6 -1 2 -7 20 -15 31 -13 32 -15 22
-47 -22 -69 -21 -85 3 -43 12 22 21 44 20 48 -1 5 2 6 8 2 6 -4 8 -16 5 -28
-11 -37 -77 -127 -88 -120 -6 3 -7 1 -3 -6 7 -11 -30 -51 -100 -106 -72 -56
-96 -67 -159 -73 -66 -5 -109 9 -173 55 -52 39 -98 153 -61 153 5 0 9 5 9 10
0 6 -7 10 -15 10 -31 0 -38 40 -32 184 10 258 47 398 145 541 56 84 133 175
147 175 3 0 13 -17 22 -37 l17 -38 7 54 c8 61 12 66 59 79 50 14 54 14 111 -8z
m-661 -77 c63 -36 79 -52 73 -71 -3 -12 -2 -13 4 -4 12 16 59 -31 48 -49 -5
-7 -4 -10 2 -6 18 11 57 -83 57 -138 0 -84 -37 -192 -81 -237 -62 -64 -150
-101 -173 -73 -16 19 -6 100 15 121 37 38 -5 114 -63 114 -32 0 -45 -11 -61
-52 -8 -20 -6 -34 10 -64 10 -21 19 -58 19 -81 0 -37 -4 -45 -25 -53 -92 -35
-260 86 -307 221 -17 50 -4 168 26 226 76 151 315 227 456 146z m1048 -32 c22
-16 43 -34 47 -40 10 -17 32 -13 102 19 35 17 70 30 78 30 8 0 15 -15 19 -37
12 -85 -3 -105 -107 -148 -52 -22 -69 -34 -74 -53 -4 -19 0 -30 17 -44 25 -20
38 -21 93 -9 46 11 46 5 5 -68 -49 -89 -64 -101 -120 -101 -54 0 -95 -28 -83
-58 26 -63 25 -69 -18 -109 -60 -55 -123 -103 -136 -103 -6 0 -11 10 -11 23 0
23 41 226 60 296 l11 41 77 0 c116 0 120 16 6 24 -153 12 -307 69 -342 127
-13 23 -14 31 -1 60 7 19 34 55 60 80 102 101 234 130 317 70z m-176 -412 c-2
-62 -43 -230 -53 -223 -4 2 -3 16 2 32 21 67 37 157 35 202 -1 31 3 49 9 46 5
-2 9 -27 7 -57z m-277 -9 c-3 -5 -12 -10 -20 -10 -8 0 -17 5 -20 10 -4 6 5 10
20 10 15 0 24 -4 20 -10z m189 -251 c-9 -30 -10 -31 -26 -16 -14 14 -15 23 -6
48 9 28 12 29 26 15 12 -11 13 -22 6 -47z m-642 -168 c15 -15 19 -26 14 -47
l-7 -27 -26 25 c-18 18 -23 32 -18 47 8 26 11 26 37 2z"/>
<path d="M1600 3125 c-59 -19 -136 -93 -177 -171 -48 -89 -48 -90 51 -86 92 4
116 -8 116 -53 0 -35 -31 -47 -126 -49 l-84 -1 -1 -30 c-4 -134 9 -173 85
-253 54 -57 108 -88 195 -112 131 -37 217 -20 275 52 14 18 31 38 36 45 50 61
77 308 46 416 -29 100 -100 194 -176 233 -47 24 -179 29 -240 9z"/>
<path d="M3621 3129 c-61 -19 -121 -70 -162 -139 -56 -94 -54 -100 30 -100 87
0 118 -11 127 -46 5 -19 1 -31 -15 -47 -18 -19 -35 -23 -111 -25 l-90 -4 0
-56 c0 -106 19 -182 64 -250 71 -110 157 -135 315 -91 109 31 188 88 247 180
28 43 29 47 28 180 0 134 -1 138 -33 203 -34 70 -110 155 -164 182 -38 20
-187 28 -236 13z"/>
<path d="M2749 2294 c-34 -37 -135 -82 -201 -90 -102 -12 -180 20 -225 92 -10
18 -12 18 -18 2 -9 -23 27 -74 68 -95 18 -9 65 -18 108 -21 66 -4 85 -1 145
23 38 15 90 39 117 52 l47 25 35 -27 c72 -54 121 -69 229 -67 79 1 104 5 131
22 38 23 73 100 46 100 -5 0 -11 -12 -13 -27 -5 -47 -56 -68 -163 -67 -100 0
-154 18 -225 74 -21 16 -42 30 -47 30 -5 0 -20 -12 -34 -26z"/>
<path d="M3299 933 c-1 -4 -1 -11 0 -15 0 -4 -8 -10 -19 -13 -26 -8 -25 -24 1
-33 18 -7 16 -10 -20 -21 -23 -6 -51 -9 -61 -6 -16 5 -20 2 -20 -17 0 -29 17
-48 45 -49 19 0 19 -1 -2 -11 -16 -8 -23 -20 -23 -40 0 -15 5 -28 10 -28 6 0
10 -10 10 -22 0 -13 4 -29 9 -37 16 -25 35 -5 46 49 13 68 40 84 30 18 -8 -50
9 -78 47 -78 11 0 28 -10 38 -22 l18 -23 29 21 c35 25 67 87 58 113 -3 11 -15
23 -26 26 -23 8 -25 31 -3 43 9 5 14 18 12 33 -2 13 3 29 11 35 11 8 11 15 1
33 -11 21 -16 22 -58 16 -59 -9 -61 -10 -55 -35 4 -15 0 -20 -15 -20 -12 0
-24 -5 -28 -11 -4 -8 -9 -7 -15 2 -15 23 -10 30 16 23 21 -5 25 -3 25 17 0 13
-4 29 -8 35 -9 14 -52 28 -53 17z m48 -148 c-4 -8 -11 -15 -17 -15 -6 0 -6 7
2 20 14 22 24 19 15 -5z"/>
</g>
</svg>
